<?xml version="1.0" standalone="no"?>
<!DOCTYPE svg PUBLIC "-//W3C//DTD SVG 20010904//EN"
 "http://www.w3.org/TR/2001/REC-SVG-20010904/DTD/svg10.dtd">
<svg version="1.0" xmlns="http://www.w3.org/2000/svg"
 width="512.000000pt" height="512.000000pt" viewBox="0 0 512.000000 512.000000"
 preserveAspectRatio="xMidYMid meet">
<metadata>
Created by potrace 1.14, written by Peter Selinger 2001-2017
</metadata>
<g transform="translate(0.000000,512.000000) scale(0.100000,-0.100000)"
fill="#000000" stroke="none">
<path d="M166 4590 c-58 -23 -109 -69 -139 -125 -17 -31 -22 -57 -22 -115 0
-65 5 -83 28 -123 31 -52 88 -99 145 -118 29 -10 530 -13 2387 -13 l2350 0 53
24 c98 43 153 136 148 250 -5 97 -69 185 -163 220 -52 19 -88 20 -2395 19
-2281 0 -2344 -1 -2392 -19z"/>
<path d="M205 2809 c-78 -17 -131 -56 -173 -128 -23 -39 -27 -57 -27 -121 0
-64 5 -83 28 -122 30 -52 73 -91 126 -115 33 -16 221 -17 2401 -17 l2365 -1
45 23 c58 31 86 57 118 112 22 37 27 57 27 120 0 64 -4 82 -27 121 -31 53 -74
92 -127 116 -33 15 -237 16 -2381 18 -1290 1 -2358 -2 -2375 -6z"/>
<path d="M195 1015 c-121 -31 -196 -134 -191 -261 4 -92 55 -171 141 -217 l40
-22 2358 -2 c2317 -3 2359 -2 2409 17 211 80 223 367 20 467 l-57 28 -2339 0
c-1594 0 -2353 -3 -2381 -10z"/>
</g>
</svg>
